<svg version="1.1" id="Layer_1" xmlns="http://www.w3.org/2000/svg" xmlns:xlink="http://www.w3.org/1999/xlink" x="0px" y="0px"
	 width="100%" viewBox="0 0 848 726" enable-background="new 0 0 848 726" xml:space="preserve">
<path fill="none" opacity="1.000000" stroke="none" 
	d="
M504.000000,727.000000 
	C336.000000,727.000000 168.500000,727.000000 1.000000,727.000000 
	C1.000000,485.000000 1.000000,243.000000 1.000000,1.000000 
	C283.666656,1.000000 566.333313,1.000000 849.000000,1.000000 
	C849.000000,243.000000 849.000000,485.000000 849.000000,727.000000 
	C734.166687,727.000000 619.333313,727.000000 504.000000,727.000000 
M305.093536,269.995911 
	C305.093536,269.995911 305.183502,269.909912 305.052368,269.129028 
	C304.532227,265.274078 301.663757,267.240814 299.173340,267.183777 
	C298.508850,267.429077 297.844330,267.674377 296.793427,267.265686 
	C295.017731,266.502045 293.308472,265.443481 291.454803,265.025909 
	C283.493469,263.232544 275.533295,261.362793 267.487671,260.036926 
	C260.917053,258.954193 254.215302,257.952606 247.590363,258.060577 
	C233.123810,258.296387 218.650726,259.026337 204.227371,260.155426 
	C201.774734,260.347412 199.133072,263.226593 197.494415,265.518860 
	C197.020096,266.182343 199.295258,269.936798 201.058197,270.889038 
	C211.455856,276.505310 222.095413,281.671722 232.612137,287.070251 
	C241.588348,291.677979 250.629181,296.180725 259.414307,301.132843 
	C265.966461,304.826233 272.100189,309.253662 278.518738,313.193787 
	C292.208099,321.597198 305.608246,330.365936 317.629608,341.126495 
	C328.539886,350.892517 339.705383,360.372986 350.666504,370.083008 
	C352.554535,371.755493 353.983856,373.945709 355.828125,376.138153 
	C343.713593,379.248444 332.572693,381.710785 321.685211,385.009399 
	C309.362396,388.742889 297.173096,392.975006 285.106934,397.476166 
	C277.579193,400.284332 270.447479,404.317596 261.580505,401.040558 
	C251.664612,398.320831 241.581100,396.086182 231.883240,392.735413 
	C223.385284,389.799225 215.448212,385.273010 207.025726,382.075012 
	C199.559082,379.239929 191.724487,377.390228 184.126175,374.881775 
	C173.431183,371.350952 162.793777,367.644012 152.156479,363.941376 
	C149.732559,363.097626 147.477432,361.733429 145.025940,361.012207 
	C140.398285,359.650818 135.658188,358.675903 131.012375,357.371063 
	C123.568596,355.280334 116.250389,352.661469 108.718956,350.985535 
	C100.355507,349.124512 91.810333,348.083221 83.348129,346.662140 
	C69.913246,344.405975 56.481560,342.130798 42.639259,339.144989 
	C37.560688,338.762268 32.486427,338.191101 27.401760,338.074799 
	C24.784180,338.014923 20.489624,336.463074 20.420740,340.665924 
	C20.386681,342.744049 24.039495,344.894348 26.063999,346.973206 
	C26.234478,347.148254 26.728054,346.961823 27.038069,347.054810 
	C33.656116,349.040314 40.206070,351.300323 46.907730,352.941559 
	C50.812553,353.897827 54.958824,353.868256 59.755234,354.103119 
	C63.496109,355.313202 67.236984,356.523285 70.342560,358.078918 
	C71.936951,358.420563 73.531342,358.762238 75.880241,359.039246 
	C78.248962,359.739471 80.617676,360.439697 83.204765,361.711151 
	C84.115585,362.084839 85.026405,362.458527 86.712585,362.991028 
	C88.600235,363.666473 90.476662,364.375458 92.377831,365.010406 
	C96.557571,366.406342 100.749809,367.764832 105.075813,369.648804 
	C105.387917,369.743713 105.700012,369.838593 106.348816,370.081085 
	C106.348816,370.081085 106.716072,370.064514 107.100151,370.741516 
	C108.859093,371.447784 110.620491,372.147980 112.376579,372.861237 
	C128.681290,379.483826 144.962753,386.164551 161.307419,392.686951 
	C164.687241,394.035706 168.301132,394.797852 172.562943,395.998077 
	C177.020569,398.379761 181.478180,400.761414 186.077225,403.651306 
	C186.388855,403.745392 186.700485,403.839447 187.341446,404.079956 
	C187.341446,404.079956 187.700806,404.052094 188.064255,404.697174 
	C188.769104,405.397522 189.350662,406.363953 190.198090,406.756592 
	C197.708160,410.236633 205.211472,413.743622 212.843582,416.939880 
	C214.949524,417.821869 217.480713,417.688446 220.024506,418.536102 
	C220.326294,418.736847 220.628082,418.937592 220.976578,419.908844 
	C219.393738,421.248596 218.000961,422.999298 216.186600,423.838562 
	C212.890717,425.363098 209.307022,426.250244 205.909042,427.572083 
	C195.400742,431.659912 185.005585,436.053772 174.410400,439.898712 
	C164.186493,443.608917 153.764221,446.771393 143.437088,450.198608 
	C131.610489,454.123413 119.841370,458.230255 107.951569,461.952332 
	C101.544983,463.957916 94.829140,465.000336 88.476509,467.141083 
	C85.994804,467.977386 82.061707,471.205627 82.378769,472.350220 
	C83.217560,475.378265 85.265213,478.476562 89.825668,478.157410 
	C98.717491,477.535248 107.643883,477.407501 116.555901,477.073517 
	C134.340179,476.407104 152.120193,475.568237 169.910110,475.131714 
	C182.196365,474.830292 194.442764,474.905182 206.563217,472.149994 
	C211.924469,470.931335 217.616074,471.248047 223.108337,470.503418 
	C230.444183,469.508789 237.724442,468.111145 245.042557,466.976654 
	C252.265015,465.857025 259.545380,465.068420 266.726898,463.737976 
	C275.785675,462.059753 284.731995,459.764252 293.802307,458.162445 
	C298.426056,457.345856 303.214844,457.463531 308.283112,457.806274 
	C311.276947,458.880096 314.268646,459.959991 317.265015,461.026672 
	C325.550537,463.976288 333.838013,466.920319 342.786133,470.215240 
	C349.867737,472.483551 356.875153,475.032410 364.054474,476.931305 
	C369.785126,478.447052 375.708435,479.275208 381.576477,480.220978 
	C389.645355,481.521454 397.742737,482.644989 406.683197,484.009033 
	C411.047821,484.695709 415.412415,485.382355 420.245239,486.836792 
	C420.733856,486.912933 421.223694,487.062592 421.710938,487.054688 
	C444.740601,486.682556 467.835724,488.432648 490.766754,484.988831 
	C492.580292,484.716461 494.295380,483.788635 496.622803,483.033234 
	C496.806641,482.971497 496.990479,482.909729 498.025787,482.974823 
	C505.568542,482.005951 513.199890,481.470825 520.630310,479.952057 
	C528.846985,478.272552 536.903442,475.776276 544.984070,473.475372 
	C550.419983,471.927521 555.806030,470.188049 561.160950,468.376373 
	C567.135132,466.355286 573.082886,464.245300 578.978210,462.005585 
	C583.896301,460.137177 588.804199,458.201660 593.566895,455.975494 
	C599.089417,453.394135 604.438965,450.444061 609.881653,447.689819 
	C613.858887,445.677155 618.008057,443.961823 621.826355,441.687164 
	C628.018372,437.998322 634.134583,434.148987 640.037720,430.017303 
	C646.442871,425.534241 654.167175,422.579834 658.664856,414.875031 
	C659.150635,414.272797 659.636475,413.670563 660.856384,413.015015 
	C669.282288,406.395294 679.278625,401.766449 686.712158,392.847992 
	C688.807251,391.868744 690.902283,390.889526 693.716919,390.055389 
	C694.188538,389.401306 694.660156,388.747223 695.711731,387.836212 
	C696.524719,387.175659 697.337708,386.515076 698.906738,385.983887 
	C699.537170,385.874969 700.221436,385.888733 700.790039,385.639038 
	C712.663879,380.423920 724.430420,374.950653 736.415222,370.005951 
	C747.774170,365.319519 759.911926,365.109467 771.979553,365.076538 
	C776.526123,365.064117 779.543274,363.631348 780.174988,357.397949 
	C769.497498,353.297485 758.669983,348.999908 747.720520,345.039490 
	C745.207153,344.130371 742.260437,344.476044 739.538269,344.074066 
	C735.726685,343.511292 731.938599,342.788940 727.228882,341.971497 
	C723.916809,341.296661 720.632507,340.378082 717.286987,339.996948 
	C709.996033,339.166443 702.673767,338.049042 695.364502,338.050781 
	C676.840942,338.055176 658.295105,338.174866 639.802979,339.122650 
	C629.816162,339.634491 619.839722,341.543396 610.010559,343.561951 
	C602.180542,345.169983 594.580811,347.899323 586.097290,350.009247 
	C580.356323,352.308441 574.615417,354.607635 568.193298,357.205139 
	C564.819763,358.518799 561.446289,359.832428 557.192749,360.985596 
	C552.531128,360.346558 547.877502,359.637878 543.204285,359.099701 
	C541.068176,358.853729 538.718872,359.454956 536.767578,358.789093 
	C529.860413,356.432098 522.855652,354.975006 515.542725,355.000153 
	C505.718719,355.033905 495.894104,355.054352 486.070923,354.958527 
	C484.527679,354.943512 482.693878,354.702271 481.500031,353.854065 
	C474.868683,349.142639 468.537231,344.001953 461.832520,339.402679 
	C450.681854,331.753693 439.422852,324.251038 428.003632,317.011475 
	C424.055145,314.508240 419.415497,313.119263 415.254791,310.913452 
	C413.812958,310.149048 413.102448,307.945221 411.651978,307.266785 
	C402.553741,303.011230 393.404327,298.848877 384.136719,294.979218 
	C380.051208,293.273407 375.561493,292.554138 371.416931,290.965393 
	C368.020477,289.663422 364.916931,287.618042 361.586365,286.118073 
	C357.665771,284.352386 353.749939,282.427277 349.634735,281.277527 
	C343.471710,279.555634 337.136719,278.449402 330.104126,276.942230 
	C329.480560,276.819519 328.838013,276.756531 328.236389,276.565002 
	C321.500885,274.420502 314.771698,272.256287 307.284790,270.001801 
	C306.525940,269.969604 305.767120,269.937408 305.093536,269.995911 
z"/>
<path fill="#5CB2E2" opacity="1.000000" stroke="none" 
	d="
M297.179810,267.919647 
	C297.844330,267.674377 298.508850,267.429077 299.458649,267.485413 
	C301.557129,268.494629 303.370331,269.202271 305.183502,269.909912 
	C305.183502,269.909912 305.093536,269.995911 305.178162,270.256226 
	C306.188782,270.376831 307.114777,270.237091 308.040802,270.097351 
	C314.771698,272.256287 321.500885,274.420502 328.236389,276.565002 
	C328.838013,276.756531 329.480560,276.819519 330.621216,277.354980 
	C337.070557,280.215790 343.012024,282.641693 348.933258,285.116180 
	C365.119995,291.880646 381.457336,298.312866 397.441864,305.526337 
	C420.537781,315.949036 442.201111,329.001953 463.062347,343.339294 
	C468.144165,346.831879 472.585876,351.255829 476.830566,355.206390 
	C469.096008,355.843048 461.770874,356.052094 454.624359,357.291351 
	C428.380737,361.842194 402.176086,366.627930 376.008423,371.597229 
	C371.251648,372.500549 366.737335,374.680817 361.842926,376.049622 
	C355.163513,369.788422 349.008209,363.446014 342.287354,357.773682 
	C328.596069,346.218262 315.139252,334.273163 300.614655,323.840759 
	C272.210449,303.439240 242.011383,285.946594 209.973007,271.746185 
	C206.891296,270.380280 204.106796,268.343842 201.184326,266.618683 
	C201.202698,266.092316 201.221069,265.565918 201.239426,265.039520 
	C202.894836,264.361420 204.498962,263.286926 206.213394,263.065155 
	C229.263855,260.083435 252.232895,261.115295 275.141479,264.671906 
	C282.478790,265.811035 289.833221,266.840179 297.179810,267.919647 
z"/>
<path fill="#D8ECC8" opacity="1.000000" stroke="none" 
	d="
M307.929016,457.158905 
	C303.214844,457.463531 298.426056,457.345856 293.802307,458.162445 
	C284.731995,459.764252 275.785675,462.059753 266.726898,463.737976 
	C259.545380,465.068420 252.265015,465.857025 245.042557,466.976654 
	C237.724442,468.111145 230.444183,469.508789 223.108337,470.503418 
	C217.616074,471.248047 211.924469,470.931335 206.563217,472.149994 
	C194.442764,474.905182 182.196365,474.830292 169.910110,475.131714 
	C152.120193,475.568237 134.340179,476.407104 116.555901,477.073517 
	C107.643883,477.407501 98.717491,477.535248 89.825668,478.157410 
	C85.265213,478.476562 83.217560,475.378265 82.378769,472.350220 
	C82.061707,471.205627 85.994804,467.977386 88.476509,467.141083 
	C94.829140,465.000336 101.544983,463.957916 107.951569,461.952332 
	C119.841370,458.230255 131.610489,454.123413 143.437088,450.198608 
	C153.764221,446.771393 164.186493,443.608917 174.410400,439.898712 
	C185.005585,436.053772 195.400742,431.659912 205.909042,427.572083 
	C209.307022,426.250244 212.890717,425.363098 216.186600,423.838562 
	C218.000961,422.999298 219.393738,421.248596 221.304108,419.443695 
	C223.060760,419.717804 224.489899,420.457062 225.906982,421.546143 
	C223.824921,423.549103 221.999954,425.817352 219.645111,426.755310 
	C204.543961,432.770386 189.444382,438.827454 174.120041,444.235260 
	C150.632828,452.523590 126.964096,460.297516 103.374062,468.294678 
	C101.925179,468.785828 100.490746,469.319672 99.049583,469.833618 
	C99.085640,470.344116 99.121696,470.854584 99.157753,471.365082 
	C101.101891,471.609039 103.043625,472.043915 104.990517,472.068298 
	C134.252930,472.435211 163.464951,471.674683 192.557739,468.154846 
	C208.848450,466.183868 225.240860,464.883514 241.432098,462.305420 
	C259.440552,459.437897 277.272430,455.461243 295.612183,451.967773 
	C299.683563,452.720703 303.323975,453.473358 307.037750,454.528259 
	C307.383728,455.606659 307.656372,456.382782 307.929016,457.158905 
z"/>
<path fill="#D8ECC8" opacity="1.000000" stroke="none" 
	d="
M296.986633,267.592651 
	C289.833221,266.840179 282.478790,265.811035 275.141479,264.671906 
	C252.232895,261.115295 229.263855,260.083435 206.213394,263.065155 
	C204.498962,263.286926 202.894836,264.361420 201.239426,265.039520 
	C201.221069,265.565918 201.202698,266.092316 201.184326,266.618683 
	C204.106796,268.343842 206.891296,270.380280 209.973007,271.746185 
	C242.011383,285.946594 272.210449,303.439240 300.614655,323.840759 
	C315.139252,334.273163 328.596069,346.218262 342.287354,357.773682 
	C349.008209,363.446014 355.163513,369.788422 361.778687,376.389374 
	C360.644165,377.952667 359.417877,379.188110 357.939148,379.897095 
	C356.053589,380.801117 353.964020,381.279572 351.634338,381.946869 
	C350.870239,381.990845 350.434204,382.029449 349.611542,382.092407 
	C346.064911,383.369568 342.904907,384.622375 339.466949,385.849487 
	C338.817078,385.831543 338.445190,385.839325 337.809448,385.655884 
	C335.605530,386.264160 333.665405,387.063690 331.312927,387.853149 
	C329.107483,388.091187 327.227264,388.073608 325.534912,388.628754 
	C310.006287,393.722504 294.510254,398.915588 278.665985,404.101349 
	C276.571503,405.018372 274.815826,405.913757 272.609375,406.870331 
	C269.491547,406.838867 266.824432,406.746246 263.930481,406.476990 
	C262.998199,405.667267 262.292816,405.034180 261.691162,403.953247 
	C261.862640,402.897980 261.930420,402.290588 261.998199,401.683167 
	C270.447479,404.317596 277.579193,400.284332 285.106934,397.476166 
	C297.173096,392.975006 309.362396,388.742889 321.685211,385.009399 
	C332.572693,381.710785 343.713593,379.248444 355.828125,376.138153 
	C353.983856,373.945709 352.554535,371.755493 350.666504,370.083008 
	C339.705383,360.372986 328.539886,350.892517 317.629608,341.126495 
	C305.608246,330.365936 292.208099,321.597198 278.518738,313.193787 
	C272.100189,309.253662 265.966461,304.826233 259.414307,301.132843 
	C250.629181,296.180725 241.588348,291.677979 232.612137,287.070251 
	C222.095413,281.671722 211.455856,276.505310 201.058197,270.889038 
	C199.295258,269.936798 197.020096,266.182343 197.494415,265.518860 
	C199.133072,263.226593 201.774734,260.347412 204.227371,260.155426 
	C218.650726,259.026337 233.123810,258.296387 247.590363,258.060577 
	C254.215302,257.952606 260.917053,258.954193 267.487671,260.036926 
	C275.533295,261.362793 283.493469,263.232544 291.454803,265.025909 
	C293.308472,265.443481 295.017731,266.502045 296.986633,267.592651 
z"/>
<path fill="#E6A7A2" opacity="1.000000" stroke="none" 
	d="
M308.106079,457.482605 
	C307.656372,456.382782 307.383728,455.606659 307.426819,454.443115 
	C308.535706,454.058136 309.328827,454.060547 310.408508,454.243591 
	C323.580261,458.932556 336.325775,463.901978 349.378876,467.856110 
	C379.289703,476.916870 409.877289,482.290314 441.197876,482.895660 
	C469.128113,483.435516 496.676361,480.496399 523.840210,473.836212 
	C546.836487,468.197876 569.638672,462.087250 591.051941,451.634705 
	C597.562683,448.456543 604.386841,445.920624 611.032104,443.441010 
	C603.729492,447.502136 596.567200,451.437653 589.176514,454.883331 
	C561.768250,467.661530 532.667114,474.778137 503.109344,480.351501 
	C501.047394,480.740326 499.148834,481.995605 497.174286,482.847961 
	C496.990479,482.909729 496.806641,482.971497 496.079224,482.804321 
	C490.641998,482.915405 485.707367,482.964844 480.862244,483.648621 
	C464.761993,485.920715 448.659027,486.618103 432.430939,485.148560 
	C428.274841,484.772186 423.998260,485.726196 419.777039,486.069000 
	C415.412415,485.382355 411.047821,484.695709 406.174286,483.582520 
	C405.128876,482.825531 404.631531,482.320221 404.050171,482.189941 
	C384.821564,477.881958 365.590851,473.582642 346.336273,469.393005 
	C345.028687,469.108459 343.532959,469.688568 342.124725,469.866577 
	C333.838013,466.920319 325.550537,463.976288 317.265015,461.026672 
	C314.268646,459.959991 311.276947,458.880096 308.106079,457.482605 
z"/>
<path fill="#D8ECC8" opacity="1.000000" stroke="none" 
	d="
M477.321930,355.251556 
	C472.585876,351.255829 468.144165,346.831879 463.062347,343.339294 
	C442.201111,329.001953 420.537781,315.949036 397.441864,305.526337 
	C381.457336,298.312866 365.119995,291.880646 348.933258,285.116180 
	C343.012024,282.641693 337.070557,280.215790 331.006592,277.424561 
	C337.136719,278.449402 343.471710,279.555634 349.634735,281.277527 
	C353.749939,282.427277 357.665771,284.352386 361.586365,286.118073 
	C364.916931,287.618042 368.020477,289.663422 371.416931,290.965393 
	C375.561493,292.554138 380.051208,293.273407 384.136719,294.979218 
	C393.404327,298.848877 402.553741,303.011230 411.651978,307.266785 
	C413.102448,307.945221 413.812958,310.149048 415.254791,310.913452 
	C419.415497,313.119263 424.055145,314.508240 428.003632,317.011475 
	C439.422852,324.251038 450.681854,331.753693 461.832520,339.402679 
	C468.537231,344.001953 474.868683,349.142639 481.500031,353.854065 
	C482.693878,354.702271 484.527679,354.943512 486.070923,354.958527 
	C495.894104,355.054352 505.718719,355.033905 515.542725,355.000153 
	C522.855652,354.975006 529.860413,356.432098 536.767578,358.789093 
	C538.718872,359.454956 541.068176,358.853729 543.204285,359.099701 
	C547.877502,359.637878 552.531128,360.346558 557.503845,361.360840 
	C557.619934,362.544830 557.424927,363.353516 556.867554,364.193542 
	C555.788513,364.272614 555.071838,364.320343 553.882507,364.252563 
	C550.444641,363.859833 547.444214,363.783508 544.519714,363.272858 
	C525.225403,359.903778 505.879608,357.213043 485.761597,358.142883 
	C483.231354,358.053497 481.149048,358.005920 478.951477,357.702698 
	C478.331451,356.715240 477.826691,355.983398 477.321930,355.251556 
z"/>
<path fill="#D9685E" opacity="1.000000" stroke="none" 
	d="
M261.587463,404.401062 
	C262.292816,405.034180 262.998199,405.667267 263.723450,406.794739 
	C258.609467,409.832916 253.446472,412.319977 248.350037,414.936676 
	C243.427994,417.463776 238.574646,420.124634 233.325424,422.730042 
	C230.612839,422.220978 228.265930,421.708649 225.919037,421.196320 
	C224.489899,420.457062 223.060760,419.717804 221.280746,419.058441 
	C220.628082,418.937592 220.326294,418.736847 219.800751,417.972473 
	C217.578232,415.746033 215.579453,414.083252 213.961456,412.318787 
	C215.589874,412.639282 217.059586,412.771393 218.049850,413.529663 
	C225.700439,419.387787 233.530304,421.103638 241.893219,415.013672 
	C242.011856,414.927246 242.234131,414.997437 242.380066,414.932098 
	C247.554825,412.614899 252.726196,410.290192 257.898071,407.966553 
	C257.856781,407.496338 257.815521,407.026123 257.774261,406.555908 
	C256.345184,405.926300 254.952026,405.192932 253.481308,404.683441 
	C242.012756,400.710175 230.544571,396.734833 219.046692,392.847687 
	C203.627731,387.634888 188.093063,382.750488 172.766968,377.279877 
	C142.268005,366.393311 111.542885,356.426849 79.536751,350.828064 
	C73.181305,349.716309 67.039337,347.384216 61.205845,345.481476 
	C64.728119,345.768433 67.866623,346.062469 70.955261,346.628540 
	C102.901428,352.483521 134.176102,360.784424 164.758789,371.796417 
	C186.491531,379.621765 208.410049,386.935150 230.290878,394.343475 
	C240.668518,397.857086 251.151962,401.058319 261.587463,404.401062 
z"/>
<path fill="#E6A7A2" opacity="1.000000" stroke="none" 
	d="
M261.691162,403.953247 
	C251.151962,401.058319 240.668518,397.857086 230.290878,394.343475 
	C208.410049,386.935150 186.491531,379.621765 164.758789,371.796417 
	C134.176102,360.784424 102.901428,352.483521 70.955261,346.628540 
	C67.866623,346.062469 64.728119,345.768433 60.901405,345.388245 
	C59.768082,345.426941 59.346107,345.425476 58.709869,345.095093 
	C55.257568,344.353912 52.019535,343.941589 48.471867,343.487793 
	C47.746269,343.452820 47.330307,343.459290 46.691666,343.136688 
	C43.850182,342.073608 41.231380,341.339600 39.037476,340.450439 
	C40.657757,340.151398 41.853142,340.007538 43.048523,339.863647 
	C56.481560,342.130798 69.913246,344.405975 83.348129,346.662140 
	C91.810333,348.083221 100.355507,349.124512 108.718956,350.985535 
	C116.250389,352.661469 123.568596,355.280334 131.012375,357.371063 
	C135.658188,358.675903 140.398285,359.650818 145.025940,361.012207 
	C147.477432,361.733429 149.732559,363.097626 152.156479,363.941376 
	C162.793777,367.644012 173.431183,371.350952 184.126175,374.881775 
	C191.724487,377.390228 199.559082,379.239929 207.025726,382.075012 
	C215.448212,385.273010 223.385284,389.799225 231.883240,392.735413 
	C241.581100,396.086182 251.664612,398.320831 261.789368,401.361877 
	C261.930420,402.290588 261.862640,402.897980 261.691162,403.953247 
z"/>
<path fill="#E6A7A2" opacity="1.000000" stroke="none" 
	d="
M557.229919,364.162231 
	C557.424927,363.353516 557.619934,362.544830 557.943848,361.441101 
	C561.446289,359.832428 564.819763,358.518799 568.938843,357.099457 
	C575.415894,354.706146 581.147400,352.418518 586.878845,350.130859 
	C594.580811,347.899323 602.180542,345.169983 610.010559,343.561951 
	C619.839722,341.543396 629.816162,339.634491 639.802979,339.122650 
	C658.295105,338.174866 676.840942,338.055176 695.364502,338.050781 
	C702.673767,338.049042 709.996033,339.166443 717.286987,339.996948 
	C720.632507,340.378082 723.916809,341.296661 727.727539,342.366943 
	C729.541565,343.693970 730.857056,344.625488 731.768921,345.667053 
	C721.027100,344.213684 710.716797,341.589905 700.344543,341.316467 
	C681.111816,340.809540 661.804993,341.019867 642.598450,342.131683 
	C617.009277,343.613007 592.414734,349.984985 568.812012,360.090027 
	C565.058228,361.697144 561.095886,362.817047 557.229919,364.162231 
z"/>
<path fill="#D8ECC8" opacity="1.000000" stroke="none" 
	d="
M497.600037,482.911377 
	C499.148834,481.995605 501.047394,480.740326 503.109344,480.351501 
	C532.667114,474.778137 561.768250,467.661530 589.176514,454.883331 
	C596.567200,451.437653 603.729492,447.502136 611.015869,443.423004 
	C611.035095,443.054535 611.077576,443.050476 611.295349,443.009155 
	C611.801392,442.847046 612.006592,442.642792 612.433594,442.158051 
	C616.396362,439.647797 620.054199,437.334595 624.071777,434.959412 
	C626.263000,433.921204 628.094543,432.944946 630.300781,431.988342 
	C635.583740,429.062561 640.602234,426.281982 645.357239,423.107056 
	C648.024048,421.326477 650.255066,418.893280 652.684326,416.712036 
	C652.686279,416.670013 652.722046,416.593781 653.080566,416.645813 
	C654.999878,416.167084 656.560730,415.636292 658.121521,415.105469 
	C654.167175,422.579834 646.442871,425.534241 640.037720,430.017303 
	C634.134583,434.148987 628.018372,437.998322 621.826355,441.687164 
	C618.008057,443.961823 613.858887,445.677155 609.881653,447.689819 
	C604.438965,450.444061 599.089417,453.394135 593.566895,455.975494 
	C588.804199,458.201660 583.896301,460.137177 578.978210,462.005585 
	C573.082886,464.245300 567.135132,466.355286 561.160950,468.376373 
	C555.806030,470.188049 550.419983,471.927521 544.984070,473.475372 
	C536.903442,475.776276 528.846985,478.272552 520.630310,479.952057 
	C513.199890,481.470825 505.568542,482.005951 497.600037,482.911377 
z"/>
<path fill="#D8ECC8" opacity="1.000000" stroke="none" 
	d="
M732.172485,345.557037 
	C730.857056,344.625488 729.541565,343.693970 728.183350,342.448639 
	C731.938599,342.788940 735.726685,343.511292 739.538269,344.074066 
	C742.260437,344.476044 745.207153,344.130371 747.720520,345.039490 
	C758.669983,348.999908 769.497498,353.297485 780.174988,357.397949 
	C779.543274,363.631348 776.526123,365.064117 771.979553,365.076538 
	C759.911926,365.109467 747.774170,365.319519 736.415222,370.005951 
	C724.430420,374.950653 712.663879,380.423920 700.790039,385.639038 
	C700.221436,385.888733 699.537170,385.874969 698.482544,385.578918 
	C698.003479,384.720032 697.948608,384.266113 698.198975,383.667297 
	C712.150879,375.429138 726.268066,368.454895 742.160461,365.417969 
	C743.001099,365.234314 743.650696,364.881439 744.577332,364.472473 
	C745.228210,364.370422 745.601990,364.324493 746.166870,364.444031 
	C747.006165,364.258972 747.654480,363.908447 748.662720,363.479065 
	C750.000122,363.301788 750.977600,363.203369 752.128784,363.295471 
	C752.966675,363.181976 753.630859,362.877930 754.664612,362.505920 
	C756.032898,362.369354 757.031738,362.300812 758.289795,362.445740 
	C760.122498,362.272858 761.695984,361.886505 763.675049,361.448608 
	C765.720703,361.356750 767.360718,361.316467 769.277100,361.497375 
	C771.245178,361.209564 772.936829,360.700592 774.628418,360.191650 
	C773.379822,359.146362 772.131226,358.101074 770.707397,356.995667 
	C770.532166,356.935577 770.184570,356.807587 770.082520,356.493225 
	C769.226868,355.873230 768.473267,355.567627 767.409363,355.193176 
	C766.487244,354.951569 765.875488,354.778809 765.111816,354.304749 
	C763.216431,353.420288 761.472961,352.837219 759.380981,352.196045 
	C758.111267,351.945892 757.190063,351.753784 756.164795,351.323303 
	C755.361145,351.013489 754.661499,350.942047 753.677368,350.831055 
	C753.019714,350.704468 752.646729,350.617493 752.168457,350.295837 
	C751.365295,349.988525 750.667236,349.915924 749.682739,349.813110 
	C749.021423,349.699860 748.646606,349.616791 748.128418,349.257202 
	C746.314697,348.604919 744.644348,348.229156 742.682068,347.833130 
	C742.004333,347.756500 741.618469,347.700165 741.094910,347.343018 
	C738.958496,346.651459 736.959717,346.260742 734.610229,345.854126 
	C733.563843,345.744476 732.868164,345.650757 732.172485,345.557037 
z"/>
<path fill="#D8ECC8" opacity="1.000000" stroke="none" 
	d="
M171.807144,395.830353 
	C168.301132,394.797852 164.687241,394.035706 161.307419,392.686951 
	C144.962753,386.164551 128.681290,379.483826 112.376579,372.861237 
	C110.620491,372.147980 108.859093,371.447784 107.323685,370.317627 
	C116.064545,372.247284 124.581879,374.600830 133.428009,377.011871 
	C134.402496,377.248657 135.048203,377.427948 135.842438,377.867676 
	C136.716476,378.381958 137.442001,378.635742 138.490906,378.955872 
	C139.441025,379.227203 140.067749,379.432190 140.846100,379.889160 
	C141.711670,380.399017 142.425598,380.656891 143.474762,381.005432 
	C145.105255,381.595123 146.400528,382.094177 147.845123,382.850708 
	C148.714081,383.372589 149.433716,383.637054 150.500000,383.982117 
	C152.796036,384.904999 154.745422,385.747345 156.851105,386.866028 
	C158.393143,387.724854 159.778870,388.307312 161.513458,388.973053 
	C165.221069,390.702972 168.579788,392.349640 171.913422,394.301697 
	C171.861267,395.014832 171.834213,395.422577 171.807144,395.830353 
z"/>
<path fill="#D9685E" opacity="1.000000" stroke="none" 
	d="
M70.977859,357.733398 
	C67.236984,356.523285 63.496109,355.313202 59.296997,353.799072 
	C54.640903,352.256500 50.443047,351.018005 46.131283,349.456909 
	C45.000893,348.259308 43.984409,347.384338 43.274174,346.342285 
	C46.745316,347.023010 49.927933,347.810181 53.072155,348.728760 
	C70.136696,353.714386 87.224510,358.625427 104.222908,363.828094 
	C107.700768,364.892517 110.831047,367.092590 113.744507,368.800873 
	C102.599274,365.208221 91.876068,361.439148 81.028656,358.069885 
	C78.572372,357.306946 75.684662,357.933014 72.662491,357.858826 
	C71.878906,357.776367 71.428375,357.754883 70.977859,357.733398 
z"/>
<path fill="#E6A7A2" opacity="1.000000" stroke="none" 
	d="
M72.995544,357.919739 
	C75.684662,357.933014 78.572372,357.306946 81.028656,358.069885 
	C91.876068,361.439148 102.599274,365.208221 114.051132,368.886353 
	C115.153244,369.011658 115.571686,369.083191 116.212814,369.423889 
	C119.014664,370.677155 121.637390,371.562134 124.161758,372.671021 
	C127.184792,373.998901 130.123810,375.518066 133.099213,376.954407 
	C124.581879,374.600830 116.064545,372.247284 107.131638,369.979126 
	C106.716072,370.064514 106.348816,370.081085 106.076218,369.792908 
	C105.547684,369.304657 105.258797,369.182617 104.936958,369.138611 
	C100.749809,367.764832 96.557571,366.406342 92.377831,365.010406 
	C90.476662,364.375458 88.600235,363.666473 86.242783,362.600586 
	C84.844116,361.853424 83.915253,361.496674 82.986389,361.139954 
	C80.617676,360.439697 78.248962,359.739471 75.201843,358.980713 
	C74.014145,358.588043 73.504837,358.253906 72.995544,357.919739 
z"/>
<path fill="#D8ECC8" opacity="1.000000" stroke="none" 
	d="
M46.245186,349.779541 
	C50.443047,351.018005 54.640903,352.256500 58.917610,353.888611 
	C54.958824,353.868256 50.812553,353.897827 46.907730,352.941559 
	C40.206070,351.300323 33.656116,349.040314 27.038069,347.054810 
	C26.728054,346.961823 26.234478,347.148254 26.063999,346.973206 
	C24.039495,344.894348 20.386681,342.744049 20.420740,340.665924 
	C20.489624,336.463074 24.784180,338.014923 27.401760,338.074799 
	C32.486427,338.191101 37.560688,338.762268 42.843891,339.504333 
	C41.853142,340.007538 40.657757,340.151398 38.693226,340.375793 
	C36.734692,340.446686 35.545311,340.437042 33.918465,340.275330 
	C32.325497,340.072144 31.099531,339.755432 30.032684,340.038452 
	C28.756990,340.376892 27.617340,341.228119 26.418766,341.857239 
	C27.353415,342.879944 28.104216,344.371490 29.261881,344.825470 
	C31.511183,345.707489 33.988895,346.007019 36.775604,346.615417 
	C38.523994,346.632935 39.868771,346.582916 41.162056,346.648132 
	C41.110565,346.763336 41.003719,346.992004 41.040634,347.350098 
	C42.800095,348.398621 44.522640,349.089081 46.245186,349.779541 
z"/>
<path fill="#D8ECC8" opacity="1.000000" stroke="none" 
	d="
M342.455444,470.040894 
	C343.532959,469.688568 345.028687,469.108459 346.336273,469.393005 
	C365.590851,473.582642 384.821564,477.881958 404.050171,482.189941 
	C404.631531,482.320221 405.128876,482.825531 405.746643,483.500183 
	C397.742737,482.644989 389.645355,481.521454 381.576477,480.220978 
	C375.708435,479.275208 369.785126,478.447052 364.054474,476.931305 
	C356.875153,475.032410 349.867737,472.483551 342.455444,470.040894 
z"/>
<path fill="#D8ECC8" opacity="1.000000" stroke="none" 
	d="
M420.011139,486.452881 
	C423.998260,485.726196 428.274841,484.772186 432.430939,485.148560 
	C448.659027,486.618103 464.761993,485.920715 480.862244,483.648621 
	C485.707367,482.964844 490.641998,482.915405 495.795959,482.870392 
	C494.295380,483.788635 492.580292,484.716461 490.766754,484.988831 
	C467.835724,488.432648 444.740601,486.682556 421.710938,487.054688 
	C421.223694,487.062592 420.733856,486.912933 420.011139,486.452881 
z"/>
<path fill="#D8ECC8" opacity="1.000000" stroke="none" 
	d="
M686.095032,393.106293 
	C679.278625,401.766449 669.282288,406.395294 660.442261,412.659973 
	C660.039917,411.533203 660.051575,410.761536 660.282166,409.746582 
	C664.949463,405.958832 669.397827,402.414337 674.170471,398.871094 
	C675.048706,398.294830 675.602539,397.717224 676.428711,396.950012 
	C678.728455,395.446014 680.755798,394.131622 683.195801,392.873962 
	C684.437256,392.989197 685.266174,393.047729 686.095032,393.106293 
z"/>
<path fill="#E6A7A2" opacity="1.000000" stroke="none" 
	d="
M172.185043,395.914215 
	C171.834213,395.422577 171.861267,395.014832 172.301102,394.284210 
	C173.949417,394.385284 175.214310,394.739441 176.415588,395.244781 
	C182.591431,397.842834 188.750900,400.479736 195.198456,403.182922 
	C195.858765,403.363922 196.236710,403.465088 196.773376,403.845032 
	C199.030563,405.681091 201.129044,407.238403 202.839310,408.861511 
	C197.534332,407.302216 192.617569,405.677155 187.700806,404.052094 
	C187.700806,404.052094 187.341446,404.079956 187.072601,403.792297 
	C186.547684,403.304291 186.258362,403.183777 185.935791,403.143127 
	C181.478180,400.761414 177.020569,398.379761 172.185043,395.914215 
z"/>
<path fill="#D8ECC8" opacity="1.000000" stroke="none" 
	d="
M187.882538,404.374634 
	C192.617569,405.677155 197.534332,407.302216 203.092819,408.948303 
	C204.074249,409.086945 204.413971,409.204559 204.873505,409.619659 
	C205.736435,410.220367 206.479507,410.523651 207.578934,410.919556 
	C209.587296,411.412659 211.239319,411.813080 213.050995,412.307434 
	C213.210648,412.401428 213.580673,412.420471 213.580658,412.420471 
	C215.579453,414.083252 217.578232,415.746033 219.696899,417.714905 
	C217.480713,417.688446 214.949524,417.821869 212.843582,416.939880 
	C205.211472,413.743622 197.708160,410.236633 190.198090,406.756592 
	C189.350662,406.363953 188.769104,405.397522 187.882538,404.374634 
z"/>
<path fill="#E6A7A2" opacity="1.000000" stroke="none" 
	d="
M686.403564,392.977142 
	C685.266174,393.047729 684.437256,392.989197 683.316040,392.557556 
	C687.980408,389.393646 692.937073,386.602905 697.893738,383.812134 
	C697.948608,384.266113 698.003479,384.720032 698.104492,385.514252 
	C697.337708,386.515076 696.524719,387.175659 695.124634,388.002777 
	C694.024109,388.749664 693.510742,389.329956 692.997375,389.910278 
	C690.902283,390.889526 688.807251,391.868744 686.403564,392.977142 
z"/>
<path fill="#D8ECC8" opacity="1.000000" stroke="none" 
	d="
M586.488037,350.070068 
	C581.147400,352.418518 575.415894,354.706146 569.279419,356.950317 
	C574.615417,354.607635 580.356323,352.308441 586.488037,350.070068 
z"/>
<path fill="#E6A7A2" opacity="1.000000" stroke="none" 
	d="
M660.063232,409.989838 
	C660.051575,410.761536 660.039917,411.533203 660.075195,412.686615 
	C659.636475,413.670563 659.150635,414.272797 658.393188,414.990265 
	C656.560730,415.636292 654.999878,416.167084 653.179810,416.337097 
	C655.301453,413.980835 657.682373,411.985321 660.063232,409.989838 
z"/>
<path fill="#D8ECC8" opacity="1.000000" stroke="none" 
	d="
M305.117920,269.519470 
	C303.370331,269.202271 301.557129,268.494629 299.721069,267.378143 
	C301.663757,267.240814 304.532227,265.274078 305.117920,269.519470 
z"/>
<path fill="#D8ECC8" opacity="1.000000" stroke="none" 
	d="
M72.662483,357.858826 
	C73.504837,358.253906 74.014145,358.588043 74.824593,359.013062 
	C73.531342,358.762238 71.936951,358.420563 70.660202,357.906158 
	C71.428375,357.754883 71.878906,357.776367 72.662483,357.858826 
z"/>
<path fill="#D8ECC8" opacity="1.000000" stroke="none" 
	d="
M83.095581,361.425537 
	C83.915253,361.496674 84.844116,361.853424 85.855103,362.521179 
	C85.026405,362.458527 84.115585,362.084839 83.095581,361.425537 
z"/>
<path fill="#D8ECC8" opacity="1.000000" stroke="none" 
	d="
M693.357178,389.982819 
	C693.510742,389.329956 694.024109,388.749664 694.834595,388.131226 
	C694.660156,388.747223 694.188538,389.401306 693.357178,389.982819 
z"/>
<path fill="#D8ECC8" opacity="1.000000" stroke="none" 
	d="
M307.662781,270.049561 
	C307.114777,270.237091 306.188782,270.376831 305.135498,270.210876 
	C305.767120,269.937408 306.525940,269.969604 307.662781,270.049561 
z"/>
<path fill="#D8ECC8" opacity="1.000000" stroke="none" 
	d="
M105.006386,369.393707 
	C105.258797,369.182617 105.547684,369.304657 105.907867,369.719116 
	C105.700012,369.838593 105.387917,369.743713 105.006386,369.393707 
z"/>
<path fill="#D8ECC8" opacity="1.000000" stroke="none" 
	d="
M186.006500,403.397217 
	C186.258362,403.183777 186.547684,403.304291 186.907928,403.719086 
	C186.700485,403.839447 186.388855,403.745392 186.006500,403.397217 
z"/>
<path fill="#AFD18A" opacity="1.000000" stroke="none" 
	d="
M476.830566,355.206390 
	C477.826691,355.983398 478.331451,356.715240 478.811829,358.065094 
	C477.927399,359.077850 477.097717,359.720490 476.202667,359.830322 
	C462.057251,361.565613 447.844910,362.850800 433.766205,365.010559 
	C415.719391,367.779053 397.762604,371.152191 379.807831,374.484802 
	C376.795288,375.043976 373.989563,376.717163 371.088257,377.875610 
	C373.352661,380.584991 375.147339,383.991760 377.960419,385.886566 
	C392.401031,395.613312 407.142548,404.892365 421.657318,414.511353 
	C423.192993,415.529083 423.934235,417.745605 424.784058,419.636658 
	C421.129639,421.013519 417.735138,422.159698 414.028442,422.986816 
	C403.631744,422.807770 393.547211,423.064362 383.462830,423.058838 
	C370.360992,423.051666 357.140320,423.897400 344.187378,422.444702 
	C327.578766,420.581970 311.122498,417.102905 294.728241,413.704498 
	C287.346283,412.174286 280.273285,409.153564 273.060120,406.809143 
	C274.815826,405.913757 276.571503,405.018372 278.685730,404.466858 
	C280.701050,405.925293 282.215698,407.579712 284.039551,408.059967 
	C291.564819,410.041534 299.124725,412.001862 306.780792,413.353241 
	C322.411102,416.112122 338.035370,419.664185 353.804077,420.674652 
	C370.810608,421.764465 387.984375,420.467346 405.074249,419.888794 
	C409.723969,419.731384 414.334320,418.410370 419.955383,417.454590 
	C400.781769,404.450134 383.054291,392.426483 365.561401,380.561981 
	C361.360870,380.988098 356.661621,381.464783 351.962372,381.941467 
	C353.964020,381.279572 356.053589,380.801117 357.939148,379.897095 
	C359.417877,379.188110 360.644165,377.952667 362.046875,376.611389 
	C366.737335,374.680817 371.251648,372.500549 376.008423,371.597229 
	C402.176086,366.627930 428.380737,361.842194 454.624359,357.291351 
	C461.770874,356.052094 469.096008,355.843048 476.830566,355.206390 
z"/>
<path fill="#A9D485" opacity="1.000000" stroke="none" 
	d="
M225.906982,421.546143 
	C228.265930,421.708649 230.612839,422.220978 233.592468,423.011108 
	C253.478424,431.919739 272.740967,440.529877 291.962982,449.229614 
	C293.196167,449.787720 294.115753,451.038757 295.181183,451.967468 
	C277.272430,455.461243 259.440552,459.437897 241.432098,462.305420 
	C225.240860,464.883514 208.848450,466.183868 192.557739,468.154846 
	C163.464951,471.674683 134.252930,472.435211 104.990517,472.068298 
	C103.043625,472.043915 101.101891,471.609039 99.157753,471.365082 
	C99.121696,470.854584 99.085640,470.344116 99.049583,469.833618 
	C100.490746,469.319672 101.925179,468.785828 103.374062,468.294678 
	C126.964096,460.297516 150.632828,452.523590 174.120041,444.235260 
	C189.444382,438.827454 204.543961,432.770386 219.645111,426.755310 
	C221.999954,425.817352 223.824921,423.549103 225.906982,421.546143 
z"/>
<path fill="#EEEA54" opacity="1.000000" stroke="none" 
	d="
M295.612183,451.967773 
	C294.115753,451.038757 293.196167,449.787720 291.962982,449.229614 
	C272.740967,440.529877 253.478424,431.919739 233.958160,423.007843 
	C238.574646,420.124634 243.427994,417.463776 248.350037,414.936676 
	C253.446472,412.319977 258.609467,409.832916 263.950348,406.971375 
	C266.824432,406.746246 269.491547,406.838867 272.609375,406.870331 
	C280.273285,409.153564 287.346283,412.174286 294.728241,413.704498 
	C311.122498,417.102905 327.578766,420.581970 344.187378,422.444702 
	C357.140320,423.897400 370.360992,423.051666 383.462830,423.058838 
	C393.547211,423.064362 403.631744,422.807770 413.734497,423.228821 
	C406.038635,426.326294 398.430756,429.267853 390.590698,431.324066 
	C365.759186,437.836700 340.827576,443.967102 315.980011,450.420044 
	C313.855286,450.971863 312.066711,452.818085 310.121979,454.062988 
	C309.328827,454.060547 308.535706,454.058136 307.353455,454.140869 
	C303.323975,453.473358 299.683563,452.720703 295.612183,451.967773 
z"/>
<path fill="#A9D485" opacity="1.000000" stroke="none" 
	d="
M351.634338,381.946869 
	C356.661621,381.464783 361.360870,380.988098 365.561401,380.561981 
	C383.054291,392.426483 400.781769,404.450134 419.955383,417.454590 
	C414.334320,418.410370 409.723969,419.731384 405.074249,419.888794 
	C387.984375,420.467346 370.810608,421.764465 353.804077,420.674652 
	C338.035370,419.664185 322.411102,416.112122 306.780792,413.353241 
	C299.124725,412.001862 291.564819,410.041534 284.039551,408.059967 
	C282.215698,407.579712 280.701050,405.925293 279.024506,404.445251 
	C294.510254,398.915588 310.006287,393.722504 325.534912,388.628754 
	C327.227264,388.073608 329.107483,388.091187 331.712891,387.887085 
	C334.374542,387.236389 336.223907,386.541748 338.073273,385.847137 
	C338.445190,385.839325 338.817078,385.831543 339.890686,385.877228 
	C343.727661,384.643127 346.862915,383.355591 349.998169,382.068054 
	C350.434204,382.029449 350.870239,381.990845 351.634338,381.946869 
z"/>
<path fill="#AFD18A" opacity="1.000000" stroke="none" 
	d="
M349.611542,382.092407 
	C346.862915,383.355591 343.727661,384.643127 340.168640,385.902954 
	C342.904907,384.622375 346.064911,383.369568 349.611542,382.092407 
z"/>
<path fill="#AFD18A" opacity="1.000000" stroke="none" 
	d="
M337.809448,385.655884 
	C336.223907,386.541748 334.374542,387.236389 332.125244,387.897095 
	C333.665405,387.063690 335.605530,386.264160 337.809448,385.655884 
z"/>
<path fill="#D2392D" opacity="1.000000" stroke="none" 
	d="
M310.408508,454.243591 
	C312.066711,452.818085 313.855286,450.971863 315.980011,450.420044 
	C340.827576,443.967102 365.759186,437.836700 390.590698,431.324066 
	C398.430756,429.267853 406.038635,426.326294 414.046692,423.547913 
	C417.735138,422.159698 421.129639,421.013519 425.207520,419.601868 
	C427.282013,419.138153 428.673126,418.939911 430.009277,418.926270 
	C429.954346,419.110931 429.949219,419.493042 430.047241,419.779297 
	C438.750275,424.205597 447.121216,428.953094 456.002838,432.375092 
	C486.120361,443.979004 517.203003,450.245911 549.722229,449.149200 
	C567.456238,448.551147 584.611206,445.583466 601.560425,440.652283 
	C608.871521,438.525208 616.323914,436.883575 623.712097,435.021423 
	C620.054199,437.334595 616.396362,439.647797 612.169067,442.067444 
	C611.425598,442.466095 611.251587,442.758301 611.077576,443.050476 
	C611.077576,443.050476 611.035095,443.054535 611.051270,443.072540 
	C604.386841,445.920624 597.562683,448.456543 591.051941,451.634705 
	C569.638672,462.087250 546.836487,468.197876 523.840210,473.836212 
	C496.676361,480.496399 469.128113,483.435516 441.197876,482.895660 
	C409.877289,482.290314 379.289703,476.916870 349.378876,467.856110 
	C336.325775,463.901978 323.580261,458.932556 310.408508,454.243591 
z"/>
<path fill="#EEEA54" opacity="1.000000" stroke="none" 
	d="
M430.064209,418.741638 
	C428.673126,418.939911 427.282013,419.138153 425.467468,419.371185 
	C423.934235,417.745605 423.192993,415.529083 421.657318,414.511353 
	C407.142548,404.892365 392.401031,395.613312 377.960419,385.886566 
	C375.147339,383.991760 373.352661,380.584991 371.088257,377.875610 
	C373.989563,376.717163 376.795288,375.043976 379.807831,374.484802 
	C397.762604,371.152191 415.719391,367.779053 433.766205,365.010559 
	C447.844910,362.850800 462.057251,361.565613 476.202667,359.830322 
	C477.097717,359.720490 477.927399,359.077850 478.927094,358.320740 
	C481.149048,358.005920 483.231354,358.053497 485.795776,358.450653 
	C491.574432,362.182709 496.853943,365.592346 502.172668,368.939667 
	C507.155243,372.075531 512.179382,375.145416 517.710999,378.569794 
	C516.083557,380.010315 515.364746,380.952393 514.413086,381.439209 
	C508.362366,384.534485 502.412689,387.898651 496.145325,390.485077 
	C480.023407,397.138336 463.692474,403.285187 447.573700,409.945709 
	C441.553589,412.433350 435.890228,415.784302 430.064209,418.741638 
z"/>
<path fill="#D9685E" opacity="1.000000" stroke="none" 
	d="
M660.282166,409.746582 
	C657.682373,411.985321 655.301453,413.980835 652.821289,416.285065 
	C652.722046,416.593781 652.686279,416.670013 652.341797,416.741455 
	C646.839233,419.548859 641.681213,422.284821 636.156128,424.822449 
	C610.533752,419.994232 585.875793,413.227051 562.767639,401.923981 
	C549.995300,395.676483 537.901733,388.041412 525.690186,380.725037 
	C529.132141,378.259644 532.257751,375.867310 535.668274,373.993652 
	C541.807068,370.621155 548.116760,367.559540 554.355103,364.368073 
	C555.071838,364.320343 555.788513,364.272614 556.867554,364.193542 
	C561.095886,362.817047 565.058228,361.697144 568.812012,360.090027 
	C592.414734,349.984985 617.009277,343.613007 642.598450,342.131683 
	C661.804993,341.019867 681.111816,340.809540 700.344543,341.316467 
	C710.716797,341.589905 721.027100,344.213684 731.768921,345.667053 
	C732.868164,345.650757 733.563843,345.744476 734.844727,346.139374 
	C737.364136,346.841614 739.298340,347.242706 741.232605,347.643829 
	C741.618469,347.700165 742.004333,347.756500 742.896912,348.123413 
	C745.026306,348.800598 746.649048,349.167175 748.271729,349.533752 
	C748.646606,349.616791 749.021423,349.699860 749.886414,350.078979 
	C751.008911,350.426819 751.641296,350.478668 752.273682,350.530518 
	C752.646729,350.617493 753.019714,350.704468 753.882812,351.093506 
	C755.004883,351.450958 755.636841,351.506317 756.268799,351.561676 
	C757.190063,351.753784 758.111267,351.945892 759.529297,352.505676 
	C761.771973,353.450928 763.517822,354.028503 765.263733,354.606079 
	C765.875488,354.778809 766.487244,354.951569 767.533813,355.490265 
	C768.707275,356.173340 769.445923,356.490448 770.184570,356.807556 
	C770.184570,356.807587 770.532166,356.935577 770.705750,357.341309 
	C770.253113,358.923401 769.626892,360.099792 769.000671,361.276184 
	C767.360718,361.316467 765.720703,361.356750 763.260986,361.290710 
	C761.580017,361.022003 760.718872,360.859589 759.991699,360.408813 
	C761.286072,359.403687 762.446472,358.686920 764.406799,357.476044 
	C761.859436,356.354065 760.158936,355.323914 758.315308,354.844879 
	C752.365295,353.299011 746.331055,352.075470 740.386108,350.511902 
	C723.944641,346.187653 707.219299,343.282379 690.260071,343.143005 
	C673.999207,343.009369 657.688965,343.749451 641.469116,344.997162 
	C618.898193,346.733429 596.762573,350.770569 575.820557,360.032288 
	C562.479004,365.932709 548.896912,371.287567 535.455322,376.964325 
	C531.376587,378.686859 531.045593,380.824860 534.816528,383.286133 
	C540.517639,387.007233 546.348022,390.619293 552.442139,393.633484 
	C578.166931,406.357086 604.940796,415.908173 633.500916,420.074463 
	C639.489624,420.948029 644.459229,420.273804 648.924500,415.885315 
	C653.537537,411.351685 658.135254,406.634979 663.423828,402.991394 
	C674.312195,395.489868 685.832825,388.909607 696.771729,381.476898 
	C713.032959,370.427826 731.230042,364.560181 750.190613,360.607819 
	C752.652588,360.094604 755.350830,360.714661 757.960327,361.165527 
	C757.997498,361.758270 758.013977,361.995270 758.030518,362.232269 
	C757.031738,362.300812 756.032898,362.369354 754.351562,362.371765 
	C753.097717,362.572052 752.526428,362.838470 751.955078,363.104919 
	C750.977600,363.203369 750.000122,363.301788 748.334473,363.364685 
	C747.089478,363.645630 746.532654,363.962097 745.975830,364.278564 
	C745.601990,364.324493 745.228210,364.370422 744.250366,364.353394 
	C743.087341,364.609833 742.528381,364.929291 741.969421,365.248749 
	C726.268066,368.454895 712.150879,375.429138 698.198975,383.667297 
	C692.937073,386.602905 687.980408,389.393646 682.903442,392.500824 
	C680.755798,394.131622 678.728455,395.446014 676.100952,396.945007 
	C674.949219,397.709656 674.397705,398.289734 673.846130,398.869812 
	C669.397827,402.414337 664.949463,405.958832 660.282166,409.746582 
z"/>
<path fill="#AFD18A" opacity="1.000000" stroke="none" 
	d="
M553.882507,364.252563 
	C548.116760,367.559540 541.807068,370.621155 535.668274,373.993652 
	C532.257751,375.867310 529.132141,378.259644 525.359863,380.792816 
	C522.973999,381.794159 521.040894,382.273315 519.249023,383.070221 
	C499.618011,391.801056 480.043457,400.659637 460.377258,409.309998 
	C452.498840,412.775330 444.431885,415.811951 436.050476,419.127686 
	C433.749878,419.305511 431.849548,419.399292 429.949219,419.493042 
	C429.949219,419.493042 429.954346,419.110931 430.009277,418.926270 
	C435.890228,415.784302 441.553589,412.433350 447.573700,409.945709 
	C463.692474,403.285187 480.023407,397.138336 496.145325,390.485077 
	C502.412689,387.898651 508.362366,384.534485 514.413086,381.439209 
	C515.364746,380.952393 516.083557,380.010315 517.710999,378.569794 
	C512.179382,375.145416 507.155243,372.075531 502.172668,368.939667 
	C496.853943,365.592346 491.574432,362.182709 486.243683,358.492432 
	C505.879608,357.213043 525.225403,359.903778 544.519714,363.272858 
	C547.444214,363.783508 550.444641,363.859833 553.882507,364.252563 
z"/>
<path fill="#D2392D" opacity="1.000000" stroke="none" 
	d="
M213.961456,412.318787 
	C213.580673,412.420471 213.210648,412.401428 213.062683,411.935913 
	C207.481369,408.835663 202.048019,406.200958 196.614670,403.566254 
	C196.236710,403.465088 195.858765,403.363922 195.155212,402.832886 
	C194.523148,402.028381 194.294250,401.483429 193.899109,401.303436 
	C172.749466,391.669830 151.651901,381.916260 130.369751,372.583710 
	C125.929199,370.636505 120.801285,370.256775 115.990128,369.154694 
	C115.571686,369.083191 115.153244,369.011658 114.428177,368.854675 
	C110.831047,367.092590 107.700768,364.892517 104.222908,363.828094 
	C87.224510,358.625427 70.136696,353.714386 53.072155,348.728760 
	C49.927933,347.810181 46.745316,347.023010 42.939751,346.400238 
	C41.867298,346.747528 41.435513,346.869781 41.003723,346.992004 
	C41.003719,346.992004 41.110565,346.763336 41.180023,346.320129 
	C43.137772,345.073151 45.026054,344.269440 46.914345,343.465759 
	C47.330307,343.459290 47.746269,343.452820 48.653622,343.786285 
	C52.404720,344.558807 55.664429,344.991394 58.924133,345.424011 
	C59.346107,345.425476 59.768082,345.426941 60.494492,345.521606 
	C67.039337,347.384216 73.181305,349.716309 79.536751,350.828064 
	C111.542885,356.426849 142.268005,366.393311 172.766968,377.279877 
	C188.093063,382.750488 203.627731,387.634888 219.046692,392.847687 
	C230.544571,396.734833 242.012756,400.710175 253.481308,404.683441 
	C254.952026,405.192932 256.345184,405.926300 257.774261,406.555908 
	C257.815521,407.026123 257.856781,407.496338 257.898071,407.966553 
	C252.726196,410.290192 247.554825,412.614899 242.380066,414.932098 
	C242.234131,414.997437 242.011856,414.927246 241.893219,415.013672 
	C233.530304,421.103638 225.700439,419.387787 218.049850,413.529663 
	C217.059586,412.771393 215.589874,412.639282 213.961456,412.318787 
z"/>
<path fill="#D9685E" opacity="1.000000" stroke="none" 
	d="
M46.691662,343.136658 
	C45.026054,344.269440 43.137772,345.073151 41.231518,346.204895 
	C39.868771,346.582916 38.523994,346.632935 36.611176,346.332947 
	C34.538853,345.098572 33.034565,344.214172 31.362648,343.231232 
	C32.535336,342.132782 33.445633,341.280090 34.355927,340.427399 
	C35.545311,340.437042 36.734692,340.446686 38.268326,340.530975 
	C41.231380,341.339600 43.850182,342.073608 46.691662,343.136658 
z"/>
<path fill="#D9685E" opacity="1.000000" stroke="none" 
	d="
M58.709869,345.095093 
	C55.664429,344.991394 52.404720,344.558807 48.963257,343.827759 
	C52.019535,343.941589 55.257568,344.353912 58.709869,345.095093 
z"/>
<path fill="#D9685E" opacity="1.000000" stroke="none" 
	d="
M430.047241,419.779297 
	C431.849548,419.399292 433.749878,419.305511 436.174561,419.484863 
	C437.759399,420.772858 438.646271,422.158478 439.905792,422.748322 
	C470.886780,437.257782 503.472687,445.676483 537.661682,446.789124 
	C565.782776,447.704254 592.942749,442.177063 619.194702,432.037323 
	C623.639771,430.320435 628.420044,429.471100 632.822021,428.443146 
	C631.707825,429.766418 630.816956,430.867523 629.926086,431.968658 
	C628.094543,432.944946 626.263000,433.921204 624.071777,434.959473 
	C616.323914,436.883575 608.871521,438.525208 601.560425,440.652283 
	C584.611206,445.583466 567.456238,448.551147 549.722229,449.149200 
	C517.203003,450.245911 486.120361,443.979004 456.002838,432.375092 
	C447.121216,428.953094 438.750275,424.205597 430.047241,419.779297 
z"/>
<path fill="#E6A7A2" opacity="1.000000" stroke="none" 
	d="
M630.300781,431.988312 
	C630.816956,430.867523 631.707825,429.766418 633.047791,428.186707 
	C634.505615,426.812347 635.514404,425.916565 636.523193,425.020813 
	C641.681213,422.284821 646.839233,419.548859 652.339844,416.783508 
	C650.255066,418.893280 648.024048,421.326477 645.357239,423.107056 
	C640.602234,426.281982 635.583740,429.062561 630.300781,431.988312 
z"/>
<path fill="#E6A7A2" opacity="1.000000" stroke="none" 
	d="
M611.295349,443.009155 
	C611.251587,442.758301 611.425598,442.466095 611.864136,442.264465 
	C612.006592,442.642792 611.801392,442.847046 611.295349,443.009155 
z"/>
<path fill="#E6A7A2" opacity="1.000000" stroke="none" 
	d="
M769.277100,361.497375 
	C769.626892,360.099792 770.253113,358.923401 770.880981,357.401428 
	C772.131226,358.101074 773.379822,359.146362 774.628418,360.191650 
	C772.936829,360.700592 771.245178,361.209564 769.277100,361.497375 
z"/>
<path fill="#E6A7A2" opacity="1.000000" stroke="none" 
	d="
M741.094910,347.343018 
	C739.298340,347.242706 737.364136,346.841614 735.195435,346.155273 
	C736.959717,346.260742 738.958496,346.651459 741.094910,347.343018 
z"/>
<path fill="#E6A7A2" opacity="1.000000" stroke="none" 
	d="
M759.857666,360.697174 
	C760.718872,360.859589 761.580017,361.022003 762.855347,361.342285 
	C761.695984,361.886505 760.122498,362.272858 758.289795,362.445740 
	C758.013977,361.995270 757.997498,361.758270 758.282227,361.177307 
	C759.008179,360.787903 759.432922,360.742523 759.857666,360.697174 
z"/>
<path fill="#E6A7A2" opacity="1.000000" stroke="none" 
	d="
M765.111816,354.304749 
	C763.517822,354.028503 761.771973,353.450928 759.877747,352.563721 
	C761.472961,352.837219 763.216431,353.420288 765.111816,354.304749 
z"/>
<path fill="#E6A7A2" opacity="1.000000" stroke="none" 
	d="
M748.128418,349.257202 
	C746.649048,349.167175 745.026306,348.800598 743.188782,348.143738 
	C744.644348,348.229156 746.314697,348.604919 748.128418,349.257202 
z"/>
<path fill="#E6A7A2" opacity="1.000000" stroke="none" 
	d="
M756.164795,351.323303 
	C755.636841,351.506317 755.004883,351.450958 754.167419,351.133118 
	C754.661499,350.942047 755.361145,351.013489 756.164795,351.323303 
z"/>
<path fill="#E6A7A2" opacity="1.000000" stroke="none" 
	d="
M752.128784,363.295441 
	C752.526428,362.838470 753.097717,362.572052 753.982056,362.439758 
	C753.630859,362.877930 752.966675,363.181976 752.128784,363.295441 
z"/>
<path fill="#E6A7A2" opacity="1.000000" stroke="none" 
	d="
M752.168457,350.295837 
	C751.641296,350.478668 751.008911,350.426819 750.172852,350.109131 
	C750.667236,349.915924 751.365295,349.988525 752.168457,350.295837 
z"/>
<path fill="#E6A7A2" opacity="1.000000" stroke="none" 
	d="
M746.166870,364.444031 
	C746.532654,363.962097 747.089478,363.645630 747.974487,363.443542 
	C747.654480,363.908447 747.006165,364.258972 746.166870,364.444031 
z"/>
<path fill="#E6A7A2" opacity="1.000000" stroke="none" 
	d="
M742.160461,365.417969 
	C742.528381,364.929291 743.087341,364.609833 743.973267,364.409485 
	C743.650696,364.881439 743.001099,365.234314 742.160461,365.417969 
z"/>
<path fill="#E6A7A2" opacity="1.000000" stroke="none" 
	d="
M770.082520,356.493195 
	C769.445923,356.490448 768.707275,356.173340 767.844177,355.559143 
	C768.473267,355.567627 769.226868,355.873230 770.082520,356.493195 
z"/>
<path fill="#D9685E" opacity="1.000000" stroke="none" 
	d="
M116.212814,369.423828 
	C120.801285,370.256775 125.929199,370.636505 130.369751,372.583710 
	C151.651901,381.916260 172.749466,391.669830 193.899109,401.303436 
	C194.294250,401.483429 194.523148,402.028381 194.872864,402.753052 
	C188.750900,400.479736 182.591431,397.842834 176.415588,395.244781 
	C175.214310,394.739441 173.949417,394.385284 172.326202,393.978821 
	C168.579788,392.349640 165.221069,390.702972 161.397812,388.651031 
	C159.520447,387.693726 158.107620,387.141724 156.694794,386.589691 
	C154.745422,385.747345 152.796036,384.904999 150.388626,383.675690 
	C149.185669,383.056885 148.440735,382.825073 147.695801,382.593262 
	C146.400528,382.094177 145.105255,381.595123 143.365768,380.697693 
	C142.179184,380.078644 141.436813,379.857941 140.694458,379.637207 
	C140.067749,379.432190 139.441025,379.227203 138.374115,378.652771 
	C137.187256,378.057983 136.440582,377.832611 135.693909,377.607239 
	C135.048203,377.427948 134.402496,377.248657 133.428009,377.011902 
	C130.123810,375.518066 127.184792,373.998901 124.161758,372.671021 
	C121.637390,371.562134 119.014664,370.677155 116.212814,369.423828 
z"/>
<path fill="#E6A7A2" opacity="1.000000" stroke="none" 
	d="
M156.851105,386.866028 
	C158.107620,387.141724 159.520447,387.693726 161.048950,388.567749 
	C159.778870,388.307312 158.393143,387.724854 156.851105,386.866028 
z"/>
<path fill="#E6A7A2" opacity="1.000000" stroke="none" 
	d="
M135.842438,377.867676 
	C136.440582,377.832611 137.187256,378.057983 138.050720,378.586456 
	C137.442001,378.635742 136.716476,378.381958 135.842438,377.867676 
z"/>
<path fill="#E6A7A2" opacity="1.000000" stroke="none" 
	d="
M140.846100,379.889160 
	C141.436813,379.857941 142.179184,380.078644 143.030548,380.607056 
	C142.425598,380.656891 141.711670,380.399017 140.846100,379.889160 
z"/>
<path fill="#E6A7A2" opacity="1.000000" stroke="none" 
	d="
M147.845123,382.850708 
	C148.440735,382.825073 149.185669,383.056885 150.041977,383.595123 
	C149.433716,383.637054 148.714081,383.372589 147.845123,382.850708 
z"/>
<path fill="#E6A7A2" opacity="1.000000" stroke="none" 
	d="
M41.040634,347.350098 
	C41.435513,346.869781 41.867298,346.747528 42.633507,346.567322 
	C43.984409,347.384338 45.000893,348.259308 46.131279,349.456909 
	C44.522640,349.089081 42.800095,348.398621 41.040634,347.350098 
z"/>
<path fill="#E6A7A2" opacity="1.000000" stroke="none" 
	d="
M33.918468,340.275330 
	C33.445633,341.280090 32.535336,342.132782 31.362648,343.231232 
	C33.034565,344.214172 34.538853,345.098572 36.207565,346.265381 
	C33.988895,346.007019 31.511183,345.707489 29.261881,344.825470 
	C28.104216,344.371490 27.353415,342.879944 26.418766,341.857239 
	C27.617340,341.228119 28.756990,340.376892 30.032684,340.038452 
	C31.099531,339.755432 32.325497,340.072144 33.918468,340.275330 
z"/>
<path fill="#E6A7A2" opacity="1.000000" stroke="none" 
	d="
M674.170471,398.871094 
	C674.397705,398.289734 674.949219,397.709656 675.828613,397.134644 
	C675.602539,397.717224 675.048706,398.294830 674.170471,398.871094 
z"/>
<path fill="#D9685E" opacity="1.000000" stroke="none" 
	d="
M196.773376,403.845032 
	C202.048019,406.200958 207.481369,408.835663 212.903030,411.841919 
	C211.239319,411.813080 209.587296,411.412659 207.463684,410.613586 
	C206.245956,409.917328 205.499817,409.619781 204.753677,409.322205 
	C204.413971,409.204559 204.074249,409.086945 203.481033,408.882507 
	C201.129044,407.238403 199.030563,405.681091 196.773376,403.845032 
z"/>
<path fill="#E6A7A2" opacity="1.000000" stroke="none" 
	d="
M204.873505,409.619659 
	C205.499817,409.619781 206.245956,409.917328 207.107346,410.520905 
	C206.479507,410.523651 205.736435,410.220367 204.873505,409.619659 
z"/>
<path fill="#D2392D" opacity="1.000000" stroke="none" 
	d="
M759.991699,360.408813 
	C759.432922,360.742523 759.008179,360.787903 758.261536,360.821533 
	C755.350830,360.714661 752.652588,360.094604 750.190613,360.607819 
	C731.230042,364.560181 713.032959,370.427826 696.771729,381.476898 
	C685.832825,388.909607 674.312195,395.489868 663.423828,402.991394 
	C658.135254,406.634979 653.537537,411.351685 648.924500,415.885315 
	C644.459229,420.273804 639.489624,420.948029 633.500916,420.074463 
	C604.940796,415.908173 578.166931,406.357086 552.442139,393.633484 
	C546.348022,390.619293 540.517639,387.007233 534.816528,383.286133 
	C531.045593,380.824860 531.376587,378.686859 535.455322,376.964325 
	C548.896912,371.287567 562.479004,365.932709 575.820557,360.032288 
	C596.762573,350.770569 618.898193,346.733429 641.469116,344.997162 
	C657.688965,343.749451 673.999207,343.009369 690.260071,343.143005 
	C707.219299,343.282379 723.944641,346.187653 740.386108,350.511902 
	C746.331055,352.075470 752.365295,353.299011 758.315308,354.844879 
	C760.158936,355.323914 761.859436,356.354065 764.406799,357.476044 
	C762.446472,358.686920 761.286072,359.403687 759.991699,360.408813 
z"/>
<path fill="#5CB2E2" opacity="1.000000" stroke="none" 
	d="
M636.156128,424.822449 
	C635.514404,425.916565 634.505615,426.812347 633.271118,427.964539 
	C628.420044,429.471100 623.639771,430.320435 619.194702,432.037323 
	C592.942749,442.177063 565.782776,447.704254 537.661682,446.789124 
	C503.472687,445.676483 470.886780,437.257782 439.905792,422.748322 
	C438.646271,422.158478 437.759399,420.772858 436.574829,419.400818 
	C444.431885,415.811951 452.498840,412.775330 460.377258,409.309998 
	C480.043457,400.659637 499.618011,391.801056 519.249023,383.070221 
	C521.040894,382.273315 522.973999,381.794159 525.171875,381.099609 
	C537.901733,388.041412 549.995300,395.676483 562.767639,401.923981 
	C585.875793,413.227051 610.533752,419.994232 636.156128,424.822449 
z"/>
</svg>